<?xml version="1.0" encoding="utf-8"?>
<!-- Generator: Adobe Illustrator 17.0.0, SVG Export Plug-In . SVG Version: 6.00 Build 0)  -->
<!DOCTYPE svg PUBLIC "-//W3C//DTD SVG 1.1//EN" "http://www.w3.org/Graphics/SVG/1.1/DTD/svg11.dtd">
<svg version="1.1" id="Layer_1" xmlns="http://www.w3.org/2000/svg" xmlns:xlink="http://www.w3.org/1999/xlink" x="0px" y="0px"
	 width="166.462px" height="185px" viewBox="0 0 166.462 185" enable-background="new 0 0 166.462 185" xml:space="preserve">
<g>
	<polygon fill="#B3B3B3" points="83.331,35.008 28.056,54.461 36.791,126.88 83.39,152.492 130.229,126.533 138.96,54.116 	"/>
	<polygon fill="#A6120D" points="133.447,58.302 83.202,41.167 83.202,146.373 125.31,123.068 	"/>
	<polygon fill="#DD1B16" points="34.258,58.61 41.743,123.378 83.201,146.373 83.201,41.165 	"/>
	<path fill="#F2F2F2" d="M97.033,97.173l-13.831,6.467H68.625l-6.853,17.14l-12.746,0.236l34.176-76.029L97.033,97.173z
		 M95.696,93.917L83.293,69.365l-10.173,24.13h10.081L95.696,93.917z"/>
	<polygon fill="#B3B3B3" points="83.201,44.988 83.293,69.365 94.836,93.513 83.227,93.513 83.201,103.625 99.253,103.641 
		106.755,121.019 118.951,121.245 	"/>
</g>
</svg>
